<svg xmlns="http://www.w3.org/2000/svg" fill="none" viewBox="0 0 20 20" height="20" width="20">
<path fill="#FF4655" d="M4.37535 6.17046C4.37535 5.17899 5.1791 4.37524 6.17056 4.37524H10.1016V6.05078H6.17056C6.10447 6.05078 6.05088 6.10436 6.05088 6.17046V13.83C6.05088 13.8961 6.10447 13.9497 6.17056 13.9497H10.3403C10.372 13.9497 10.4024 13.9371 10.4249 13.9147L12.765 11.5745H9.89908V9.89898H14.7876C15.2503 9.89898 15.6254 10.2741 15.6254 10.7367V15.6252H13.9498V12.7593L11.6097 15.0994C11.273 15.4361 10.8164 15.6252 10.3403 15.6252H6.17056C5.17909 15.6252 4.37535 14.8215 4.37535 13.83V6.17046Z" clip-rule="evenodd" fill-rule="evenodd"></path>
</svg>
